<?xml version="1.0" encoding="utf-8"?>
<!-- Generator: Adobe Illustrator 19.2.1, SVG Export Plug-In . SVG Version: 6.00 Build 0)  -->
<svg version="1.1" id="Слой_1" xmlns="http://www.w3.org/2000/svg" xmlns:xlink="http://www.w3.org/1999/xlink" x="0px" y="0px"
	 viewBox="0 0 24 24" style="enable-background:new 0 0 24 24;" xml:space="preserve">
<style type="text/css">
	.st0{fill:#191A1A;}
</style>
<path d="M17,2.1c-2,0-3.8,0.8-5,2.1c-1.2-1.4-3-2.1-5-2.1C5.3,2.1,3.6,2.8,2.4,4C1.2,5.2,0.5,6.9,0.5,8.6c0,7.2,10.5,12.9,10.9,13.2c0.2,0.1,0.4,0.1,0.6,0.1c0.2,0,0.4,0,0.6-0.1c0.4-0.2,10.9-6,10.9-13.2c0-1.7-0.7-3.4-1.9-4.6C20.4,2.8,18.7,2.1,17,2.1z M16.4,16.2c-1.4,1.2-2.9,2.2-4.4,3.2c-1.6-0.9-3-2-4.4-3.2c-2.2-1.8-4.7-4.7-4.7-7.6c0-1.1,0.4-2.2,1.2-2.9S5.9,4.5,7,4.5c1.8,0,3.2,0.9,3.9,2.4c0.1,0.2,0.2,0.4,0.4,0.5c0.2,0.1,0.4,0.2,0.7,0.2c0.2,0,0.5-0.1,0.7-0.2s0.3-0.3,0.4-0.5c0.6-1.5,2.1-2.4,3.9-2.4c1.1,0,2.2,0.4,2.9,1.2c0.8,0.8,1.2,1.8,1.2,2.9C21.1,11.5,18.6,14.4,16.4,16.2z"/>
</svg>
