<?xml version="1.0" encoding="utf-8"?>
<!-- Generator: Adobe Illustrator 19.2.1, SVG Export Plug-In . SVG Version: 6.00 Build 0)  -->
<svg version="1.1" id="Слой_1" xmlns="http://www.w3.org/2000/svg" xmlns:xlink="http://www.w3.org/1999/xlink" x="0px" y="0px"
	 viewBox="0 0 24 24" style="enable-background:new 0 0 24 24;" xml:space="preserve">
<style type="text/css">
	.st0{fill:#989999;}
</style>
<path d="M12,1.9c-2,0-4,0.6-5.6,1.7c-1.7,1.1-3,2.7-3.7,4.5C1.9,10,1.7,12,2.1,14c0.4,2,1.4,3.8,2.8,5.2s3.2,2.4,5.2,2.8c2,0.4,4,0.2,5.9-0.6c1.9-0.8,3.4-2.1,4.5-3.7c1.1-1.7,1.7-3.6,1.7-5.6c0-2.7-1.1-5.3-3-7.2C17.3,2.9,14.7,1.9,12,1.9z M7.5,18.4c0.5-0.7,1.2-1.3,2-1.7c0.8-0.4,1.7-0.6,2.5-0.6s1.8,0.2,2.5,0.6c0.8,0.4,1.5,1,2,1.7c-1.3,0.9-2.9,1.4-4.5,1.4S8.8,19.4,7.5,18.4z M9.4,11.2c0-0.5,0.2-1,0.4-1.5c0.3-0.4,0.7-0.8,1.2-1c0.5-0.2,1-0.3,1.5-0.1c0.5,0.1,1,0.4,1.3,0.7c0.4,0.4,0.6,0.8,0.7,1.3s0,1-0.1,1.5c-0.2,0.5-0.5,0.9-1,1.2s-0.9,0.4-1.5,0.4c-0.7,0-1.4-0.3-1.9-0.8C9.7,12.6,9.4,11.9,9.4,11.2z M18.2,16.9c-0.7-0.9-1.7-1.7-2.7-2.2c0.7-0.7,1.1-1.6,1.3-2.5c0.2-0.9,0.1-1.9-0.3-2.8c-0.4-0.9-1-1.6-1.8-2.2C13.9,6.7,13,6.4,12,6.4s-1.9,0.3-2.7,0.8C8.5,7.7,7.9,8.5,7.5,9.4c-0.4,0.9-0.5,1.9-0.3,2.8c0.2,0.9,0.6,1.8,1.3,2.5c-1.1,0.5-2,1.3-2.7,2.2c-0.9-1.2-1.5-2.6-1.6-4c-0.2-1.5,0.1-3,0.7-4.3c0.6-1.3,1.7-2.5,2.9-3.2c1.3-0.8,2.7-1.2,4.2-1.2s2.9,0.4,4.2,1.2c1.3,0.8,2.3,1.9,2.9,3.2c0.6,1.3,0.9,2.8,0.7,4.3C19.7,14.3,19.1,15.7,18.2,16.9L18.2,16.9z"/>
</svg>
