<svg aria-hidden="true" style="width: 0px; height: 0px; overflow: hidden; position: absolute;" xmlns="http://www.w3.org/2000/svg">
    <symbol id="bag_icon" viewBox="0 0 24 24">
      <path d="M20.3,3.4H3.8c-0.5,0-1,0.2-1.3,0.5C2.1,4.3,1.9,4.8,1.9,5.3v13.5c0,0.5,0.2,1,0.5,1.3c0.4,0.4,0.8,0.5,1.3,0.5h16.5c0.5,0,1-0.2,1.3-0.5c0.4-0.4,0.5-0.8,0.5-1.3V5.3c0-0.5-0.2-1-0.5-1.3C21.2,3.6,20.7,3.4,20.3,3.4z M19.9,18.4H4.1V5.6h15.8V18.4z M7.1,8.3c0-0.3,0.1-0.6,0.3-0.8C7.7,7.2,8,7.1,8.3,7.1S8.8,7.2,9,7.5C9.3,7.7,9.4,8,9.4,8.3c0,0.7,0.3,1.4,0.8,1.9c0.5,0.5,1.2,0.8,1.9,0.8s1.4-0.3,1.9-0.8c0.5-0.5,0.8-1.2,0.8-1.9c0-0.3,0.1-0.6,0.3-0.8c0.2-0.2,0.5-0.3,0.8-0.3c0.3,0,0.6,0.1,0.8,0.3c0.2,0.2,0.3,0.5,0.3,0.8c0,1.3-0.5,2.5-1.4,3.4c-0.9,0.9-2.2,1.4-3.4,1.4s-2.5-0.5-3.4-1.4C7.6,10.8,7.1,9.5,7.1,8.3z"/>
    </symbol>
    <symbol id="close_icon" viewBox="0 0 24 24">
      <path d="M19.5,18c0.2,0.2,0.3,0.5,0.3,0.8c0,0.3-0.1,0.6-0.3,0.8c-0.2,0.2-0.5,0.3-0.8,0.3c-0.3,0-0.6-0.1-0.8-0.3l-6-6l-6,6c-0.2,0.2-0.5,0.3-0.8,0.3c-0.3,0-0.6-0.1-0.8-0.3c-0.2-0.2-0.3-0.5-0.3-0.8c0-0.3,0.1-0.6,0.3-0.8l6-6l-6-6C4.2,5.8,4.1,5.5,4.1,5.2c0-0.3,0.1-0.6,0.3-0.8C4.7,4.2,5,4.1,5.3,4.1c0.3,0,0.6,0.1,0.8,0.3l6,6l6-6c0.2-0.2,0.5-0.3,0.8-0.3s0.6,0.1,0.8,0.3c0.2,0.2,0.3,0.5,0.3,0.8c0,0.3-0.1,0.6-0.3,0.8l-6,6L19.5,18z"/>
    </symbol>
    <symbol id="heart_icon" viewBox="0 0 24 24">
      <path d="M17,2.1c-2,0-3.8,0.8-5,2.1c-1.2-1.4-3-2.1-5-2.1C5.3,2.1,3.6,2.8,2.4,4C1.2,5.2,0.5,6.9,0.5,8.6c0,7.2,10.5,12.9,10.9,13.2c0.2,0.1,0.4,0.1,0.6,0.1c0.2,0,0.4,0,0.6-0.1c0.4-0.2,10.9-6,10.9-13.2c0-1.7-0.7-3.4-1.9-4.6C20.4,2.8,18.7,2.1,17,2.1z M16.4,16.2c-1.4,1.2-2.9,2.2-4.4,3.2c-1.6-0.9-3-2-4.4-3.2c-2.2-1.8-4.7-4.7-4.7-7.6c0-1.1,0.4-2.2,1.2-2.9S5.9,4.5,7,4.5c1.8,0,3.2,0.9,3.9,2.4c0.1,0.2,0.2,0.4,0.4,0.5c0.2,0.1,0.4,0.2,0.7,0.2c0.2,0,0.5-0.1,0.7-0.2s0.3-0.3,0.4-0.5c0.6-1.5,2.1-2.4,3.9-2.4c1.1,0,2.2,0.4,2.9,1.2c0.8,0.8,1.2,1.8,1.2,2.9C21.1,11.5,18.6,14.4,16.4,16.2z"/>
    </symbol>
    <symbol id="home_icon" viewBox="0 0 24 24">
      <path d="M20.7712 9.45468L13.2759 2.37937L13.2609 2.36531C12.9165 2.05008 12.4665 1.87524 11.9995 1.87524C11.5326 1.87524 11.0826 2.05008 10.7381 2.36531L10.7222 2.37937L3.22875 9.45468C3.03872 9.6305 2.88702 9.84364 2.78313 10.0808C2.67924 10.3179 2.62541 10.5739 2.625 10.8328V19.5C2.625 19.9973 2.82254 20.4742 3.17417 20.8258C3.52581 21.1775 4.00272 21.375 4.5 21.375H9C9.49728 21.375 9.97419 21.1775 10.3258 20.8258C10.6775 20.4742 10.875 19.9973 10.875 19.5V15.375H13.125V19.5C13.125 19.9973 13.3225 20.4742 13.6742 20.8258C14.0258 21.1775 14.5027 21.375 15 21.375H19.5C19.9973 21.375 20.4742 21.1775 20.8258 20.8258C21.1775 20.4742 21.375 19.9973 21.375 19.5V10.8328C21.3746 10.5739 21.3208 10.3179 21.2169 10.0808C21.113 9.84364 20.9613 9.6305 20.7712 9.45468ZM19.125 19.125H15.375V15C15.375 14.7538 15.3265 14.5099 15.2323 14.2825C15.138 14.055 14.9999 13.8483 14.8258 13.6742C14.6517 13.5001 14.445 13.362 14.2175 13.2677C13.99 13.1735 13.7462 13.125 13.5 13.125H10.5C10.0027 13.125 9.52581 13.3225 9.17417 13.6742C8.82254 14.0258 8.625 14.5027 8.625 15V19.125H4.875V10.995L12 4.26843L19.125 10.995V19.125Z"/>
    </symbol>
    <symbol id="search_icon" viewBox="0 0 24 24">
      <path d="M21.7961 20.2042L17.3439 15.7501C18.6788 14.0106 19.302 11.8284 19.0871 9.64618C18.8723 7.46401 17.8354 5.44527 16.1868 3.99948C14.5383 2.55369 12.4015 1.7891 10.21 1.86083C8.01841 1.93255 5.9362 2.83521 4.3857 4.3857C2.83521 5.9362 1.93255 8.01841 1.86083 10.21C1.7891 12.4015 2.55369 14.5383 3.99948 16.1868C5.44527 17.8354 7.46401 18.8723 9.64618 19.0871C11.8284 19.302 14.0106 18.6788 15.7501 17.3439L20.2061 21.8007C20.3107 21.9054 20.4349 21.9884 20.5717 22.045C20.7084 22.1017 20.8549 22.1308 21.0029 22.1308C21.1509 22.1308 21.2975 22.1017 21.4342 22.045C21.5709 21.9884 21.6952 21.9054 21.7998 21.8007C21.9044 21.6961 21.9875 21.5719 22.0441 21.4351C22.1007 21.2984 22.1299 21.1519 22.1299 21.0039C22.1299 20.8559 22.1007 20.7093 22.0441 20.5726C21.9875 20.4359 21.9044 20.3116 21.7998 20.207L21.7961 20.2042ZM4.12512 10.5001C4.12512 9.23926 4.499 8.00672 5.1995 6.95836C5.89999 5.90999 6.89563 5.09289 8.06051 4.61038C9.22539 4.12788 10.5072 4.00163 11.7438 4.24761C12.9804 4.49359 14.1164 5.10075 15.0079 5.99231C15.8995 6.88387 16.5066 8.01979 16.7526 9.25642C16.9986 10.493 16.8724 11.7748 16.3898 12.9397C15.9073 14.1046 15.0902 15.1002 14.0419 15.8007C12.9935 16.5012 11.761 16.8751 10.5001 16.8751C8.80989 16.8734 7.1894 16.2012 5.99423 15.006C4.79906 13.8108 4.12685 12.1903 4.12512 10.5001Z"/>
    </symbol>
    <symbol id="cart_icon" viewBox="0 0 24 24">
      <path d="M9.375 20.25C9.375 20.6208 9.26503 20.9834 9.059 21.2917C8.85298 21.6 8.56014 21.8404 8.21753 21.9823C7.87492 22.1242 7.49792 22.1613 7.1342 22.089C6.77049 22.0166 6.4364 21.838 6.17417 21.5758C5.91195 21.3136 5.73337 20.9795 5.66103 20.6158C5.58868 20.2521 5.62581 19.8751 5.76773 19.5325C5.90964 19.1899 6.14996 18.897 6.45831 18.691C6.76665 18.485 7.12916 18.375 7.5 18.375C7.99728 18.375 8.47419 18.5725 8.82582 18.9242C9.17745 19.2758 9.375 19.7527 9.375 20.25ZM17.25 18.375C16.8792 18.375 16.5166 18.485 16.2083 18.691C15.9 18.897 15.6596 19.1899 15.5177 19.5325C15.3758 19.8751 15.3387 20.2521 15.411 20.6158C15.4834 20.9795 15.662 21.3136 15.9242 21.5758C16.1864 21.838 16.5205 22.0166 16.8842 22.089C17.2479 22.1613 17.6249 22.1242 17.9675 21.9823C18.3101 21.8404 18.603 21.6 18.809 21.2917C19.015 20.9834 19.125 20.6208 19.125 20.25C19.125 19.7527 18.9275 19.2758 18.5758 18.9242C18.2242 18.5725 17.7473 18.375 17.25 18.375ZM22.0753 7.08094L19.5169 15.3966C19.3535 15.9343 19.0211 16.4051 18.569 16.739C18.1169 17.0729 17.5692 17.2521 17.0072 17.25H7.77469C7.2046 17.2482 6.65046 17.0616 6.1953 16.7183C5.74015 16.3751 5.40848 15.8936 5.25 15.3459L2.04469 4.125H1.125C0.826631 4.125 0.540483 4.00647 0.329505 3.7955C0.118526 3.58452 0 3.29837 0 3C0 2.70163 0.118526 2.41548 0.329505 2.2045C0.540483 1.99353 0.826631 1.875 1.125 1.875H2.32687C2.73407 1.87626 3.12988 2.00951 3.45493 2.25478C3.77998 2.50004 4.01674 2.84409 4.12969 3.23531L4.81312 5.625H21C21.1761 5.62499 21.3497 5.6663 21.5069 5.74561C21.664 5.82492 21.8004 5.94001 21.905 6.08164C22.0096 6.22326 22.0795 6.38746 22.1091 6.56102C22.1387 6.73458 22.1271 6.91266 22.0753 7.08094ZM19.4766 7.875H5.45531L7.41375 14.7281C7.43617 14.8065 7.48354 14.8755 7.54867 14.9245C7.6138 14.9736 7.69315 15.0001 7.77469 15H17.0072C17.0875 15.0002 17.1656 14.9746 17.2303 14.927C17.2949 14.8794 17.3426 14.8123 17.3662 14.7356L19.4766 7.875Z"/>
    </symbol>
    <symbol id="user_icon" viewBox="0 0 24 24">
      <path d="M12,1.9c-2,0-4,0.6-5.6,1.7c-1.7,1.1-3,2.7-3.7,4.5C1.9,10,1.7,12,2.1,14c0.4,2,1.4,3.8,2.8,5.2s3.2,2.4,5.2,2.8c2,0.4,4,0.2,5.9-0.6c1.9-0.8,3.4-2.1,4.5-3.7c1.1-1.7,1.7-3.6,1.7-5.6c0-2.7-1.1-5.3-3-7.2C17.3,2.9,14.7,1.9,12,1.9z M7.5,18.4c0.5-0.7,1.2-1.3,2-1.7c0.8-0.4,1.7-0.6,2.5-0.6s1.8,0.2,2.5,0.6c0.8,0.4,1.5,1,2,1.7c-1.3,0.9-2.9,1.4-4.5,1.4S8.8,19.4,7.5,18.4z M9.4,11.2c0-0.5,0.2-1,0.4-1.5c0.3-0.4,0.7-0.8,1.2-1c0.5-0.2,1-0.3,1.5-0.1c0.5,0.1,1,0.4,1.3,0.7c0.4,0.4,0.6,0.8,0.7,1.3s0,1-0.1,1.5c-0.2,0.5-0.5,0.9-1,1.2s-0.9,0.4-1.5,0.4c-0.7,0-1.4-0.3-1.9-0.8C9.7,12.6,9.4,11.9,9.4,11.2z M18.2,16.9c-0.7-0.9-1.7-1.7-2.7-2.2c0.7-0.7,1.1-1.6,1.3-2.5c0.2-0.9,0.1-1.9-0.3-2.8c-0.4-0.9-1-1.6-1.8-2.2C13.9,6.7,13,6.4,12,6.4s-1.9,0.3-2.7,0.8C8.5,7.7,7.9,8.5,7.5,9.4c-0.4,0.9-0.5,1.9-0.3,2.8c0.2,0.9,0.6,1.8,1.3,2.5c-1.1,0.5-2,1.3-2.7,2.2c-0.9-1.2-1.5-2.6-1.6-4c-0.2-1.5,0.1-3,0.7-4.3c0.6-1.3,1.7-2.5,2.9-3.2c1.3-0.8,2.7-1.2,4.2-1.2s2.9,0.4,4.2,1.2c1.3,0.8,2.3,1.9,2.9,3.2c0.6,1.3,0.9,2.8,0.7,4.3C19.7,14.3,19.1,15.7,18.2,16.9L18.2,16.9z"/>
    </symbol>
    <symbol id="arrow_left" viewBox="0 0 24 24">
      <path d="M21.4,12c0,0.3-0.1,0.6-0.3,0.8c-0.2,0.2-0.5,0.3-0.8,0.3H6.5l4.8,4.8c0.2,0.2,0.3,0.5,0.3,0.8c0,0.3-0.1,0.6-0.3,0.8c-0.2,0.2-0.5,0.3-0.8,0.3c-0.3,0-0.6-0.1-0.8-0.3L3,12.8c-0.1-0.1-0.2-0.2-0.2-0.4c-0.1-0.1-0.1-0.3-0.1-0.4c0-0.1,0-0.3,0.1-0.4c0.1-0.1,0.1-0.3,0.2-0.4l6.8-6.8c0.1-0.1,0.2-0.2,0.4-0.2c0.1-0.1,0.3-0.1,0.4-0.1c0.1,0,0.3,0,0.4,0.1c0.1,0.1,0.3,0.1,0.4,0.2c0.1,0.1,0.2,0.2,0.2,0.4c0.1,0.1,0.1,0.3,0.1,0.4c0,0.1,0,0.3-0.1,0.4c-0.1,0.1-0.1,0.3-0.2,0.4l-4.8,4.8h13.8c0.3,0,0.6,0.1,0.8,0.3C21.3,11.4,21.4,11.7,21.4,12z"/>
    </symbol>
    <symbol id="arrow_right" viewBox="0 0 24 24">
      <path d="M2.6,12c0-0.3,0.1-0.6,0.3-0.8c0.2-0.2,0.5-0.3,0.8-0.3h13.8L12.7,6c-0.2-0.2-0.3-0.5-0.3-0.8c0-0.3,0.1-0.6,0.3-0.8c0.2-0.2,0.5-0.3,0.8-0.3c0.3,0,0.6,0.1,0.8,0.3l6.8,6.8c0.1,0.1,0.2,0.2,0.2,0.4c0.1,0.1,0.1,0.3,0.1,0.4c0,0.1,0,0.3-0.1,0.4c-0.1,0.1-0.1,0.3-0.2,0.4l-6.7,6.8c-0.1,0.1-0.2,0.2-0.4,0.2c-0.1,0.1-0.3,0.1-0.4,0.1c-0.1,0-0.3,0-0.4-0.1c-0.1-0.1-0.3-0.1-0.4-0.2c-0.1-0.1-0.2-0.2-0.2-0.4c-0.1-0.1-0.1-0.3-0.1-0.4c0-0.1,0-0.3,0.1-0.4c0.1-0.1,0.1-0.3,0.2-0.4l4.8-4.8H3.7c-0.3,0-0.6-0.1-0.8-0.3C2.7,12.6,2.6,12.3,2.6,12z"/>
    </symbol>
    <symbol id="minus_icon" viewBox="0 0 24 24">
      <path d="M21.375 12C21.375 12.2984 21.2565 12.5845 21.0455 12.7955C20.8345 13.0065 20.5484 13.125 20.25 13.125H3.75C3.45163 13.125 3.16548 13.0065 2.9545 12.7955C2.74353 12.5845 2.625 12.2984 2.625 12C2.625 11.7016 2.74353 11.4155 2.9545 11.2045C3.16548 10.9935 3.45163 10.875 3.75 10.875H20.25C20.5484 10.875 20.8345 10.9935 21.0455 11.2045C21.2565 11.4155 21.375 11.7016 21.375 12Z"/>
    </symbol>
    <symbol id="plus_icon" viewBox="0 0 24 24">
      <path d="M21.375 12C21.375 12.2984 21.2565 12.5845 21.0455 12.7955C20.8345 13.0065 20.5484 13.125 20.25 13.125H13.125V20.25C13.125 20.5484 13.0065 20.8345 12.7955 21.0455C12.5845 21.2565 12.2984 21.375 12 21.375C11.7016 21.375 11.4155 21.2565 11.2045 21.0455C10.9935 20.8345 10.875 20.5484 10.875 20.25V13.125H3.75C3.45163 13.125 3.16548 13.0065 2.9545 12.7955C2.74353 12.5845 2.625 12.2984 2.625 12C2.625 11.7016 2.74353 11.4155 2.9545 11.2045C3.16548 10.9935 3.45163 10.875 3.75 10.875H10.875V3.75C10.875 3.45163 10.9935 3.16548 11.2045 2.9545C11.4155 2.74353 11.7016 2.625 12 2.625C12.2984 2.625 12.5845 2.74353 12.7955 2.9545C13.0065 3.16548 13.125 3.45163 13.125 3.75V10.875H20.25C20.5484 10.875 20.8345 10.9935 21.0455 11.2045C21.2565 11.4155 21.375 11.7016 21.375 12Z"/>
    </symbol>
    <symbol id="delete_icon" viewBox="0 0 24 24">
      <path d="M20.25 4.5H16.875V3.375C16.875 2.67881 16.5984 2.01113 16.1062 1.51884C15.6139 1.02656 14.9462 0.75 14.25 0.75H9.75C9.05381 0.75 8.38613 1.02656 7.89384 1.51884C7.40156 2.01113 7.125 2.67881 7.125 3.375V4.5H3.75C3.45163 4.5 3.16548 4.61853 2.9545 4.8295C2.74353 5.04048 2.625 5.32663 2.625 5.625C2.625 5.92337 2.74353 6.20952 2.9545 6.4205C3.16548 6.63147 3.45163 6.75 3.75 6.75H4.125V19.5C4.125 19.9973 4.32254 20.4742 4.67417 20.8258C5.02581 21.1775 5.50272 21.375 6 21.375H18C18.4973 21.375 18.9742 21.1775 19.3258 20.8258C19.6775 20.4742 19.875 19.9973 19.875 19.5V6.75H20.25C20.5484 6.75 20.8345 6.63147 21.0455 6.4205C21.2565 6.20952 21.375 5.92337 21.375 5.625C21.375 5.32663 21.2565 5.04048 21.0455 4.8295C20.8345 4.61853 20.5484 4.5 20.25 4.5ZM9.375 3.375C9.375 3.27554 9.41451 3.18016 9.48483 3.10984C9.55516 3.03951 9.65054 3 9.75 3H14.25C14.3495 3 14.4448 3.03951 14.5152 3.10984C14.5855 3.18016 14.625 3.27554 14.625 3.375V4.5H9.375V3.375ZM17.625 19.125H6.375V6.75H17.625V19.125ZM10.875 9.75V15.75C10.875 16.0484 10.7565 16.3345 10.5455 16.5455C10.3345 16.7565 10.0484 16.875 9.75 16.875C9.45163 16.875 9.16548 16.7565 8.9545 16.5455C8.74353 16.3345 8.625 16.0484 8.625 15.75V9.75C8.625 9.45163 8.74353 9.16548 8.9545 8.9545C9.16548 8.74353 9.45163 8.625 9.75 8.625C10.0484 8.625 10.3345 8.74353 10.5455 8.9545C10.7565 9.16548 10.875 9.45163 10.875 9.75ZM15.375 9.75V15.75C15.375 16.0484 15.2565 16.3345 15.0455 16.5455C14.8345 16.7565 14.5484 16.875 14.25 16.875C13.9516 16.875 13.6655 16.7565 13.4545 16.5455C13.2435 16.3345 13.125 16.0484 13.125 15.75V9.75C13.125 9.45163 13.2435 9.16548 13.4545 8.9545C13.6655 8.74353 13.9516 8.625 14.25 8.625C14.5484 8.625 14.8345 8.74353 15.0455 8.9545C15.2565 9.16548 15.375 9.45163 15.375 9.75Z"/>
    </symbol>
    <symbol id="filter_icon" viewBox="0 0 24 24">
      <path d="M13.125 11.625V20.25C13.125 20.5484 13.0065 20.8345 12.7955 21.0455C12.5845 21.2565 12.2984 21.375 12 21.375C11.7016 21.375 11.4155 21.2565 11.2045 21.0455C10.9935 20.8345 10.875 20.5484 10.875 20.25V11.625C10.875 11.3266 10.9935 11.0405 11.2045 10.8295C11.4155 10.6185 11.7016 10.5 12 10.5C12.2984 10.5 12.5845 10.6185 12.7955 10.8295C13.0065 11.0405 13.125 11.3266 13.125 11.625ZM18.75 18C18.4516 18 18.1655 18.1185 17.9545 18.3295C17.7435 18.5405 17.625 18.8266 17.625 19.125V20.25C17.625 20.5484 17.7435 20.8345 17.9545 21.0455C18.1655 21.2565 18.4516 21.375 18.75 21.375C19.0484 21.375 19.3345 21.2565 19.5455 21.0455C19.7565 20.8345 19.875 20.5484 19.875 20.25V19.125C19.875 18.8266 19.7565 18.5405 19.5455 18.3295C19.3345 18.1185 19.0484 18 18.75 18ZM21 14.25H19.875V3.75C19.875 3.45163 19.7565 3.16548 19.5455 2.9545C19.3345 2.74353 19.0484 2.625 18.75 2.625C18.4516 2.625 18.1655 2.74353 17.9545 2.9545C17.7435 3.16548 17.625 3.45163 17.625 3.75V14.25H16.5C16.2016 14.25 15.9155 14.3685 15.7045 14.5795C15.4935 14.7905 15.375 15.0766 15.375 15.375C15.375 15.6734 15.4935 15.9595 15.7045 16.1705C15.9155 16.3815 16.2016 16.5 16.5 16.5H21C21.2984 16.5 21.5845 16.3815 21.7955 16.1705C22.0065 15.9595 22.125 15.6734 22.125 15.375C22.125 15.0766 22.0065 14.7905 21.7955 14.5795C21.5845 14.3685 21.2984 14.25 21 14.25ZM5.25 15C4.95163 15 4.66548 15.1185 4.4545 15.3295C4.24353 15.5405 4.125 15.8266 4.125 16.125V20.25C4.125 20.5484 4.24353 20.8345 4.4545 21.0455C4.66548 21.2565 4.95163 21.375 5.25 21.375C5.54837 21.375 5.83452 21.2565 6.0455 21.0455C6.25647 20.8345 6.375 20.5484 6.375 20.25V16.125C6.375 15.8266 6.25647 15.5405 6.0455 15.3295C5.83452 15.1185 5.54837 15 5.25 15ZM7.5 11.25H6.375V3.75C6.375 3.45163 6.25647 3.16548 6.0455 2.9545C5.83452 2.74353 5.54837 2.625 5.25 2.625C4.95163 2.625 4.66548 2.74353 4.4545 2.9545C4.24353 3.16548 4.125 3.45163 4.125 3.75V11.25H3C2.70163 11.25 2.41548 11.3685 2.2045 11.5795C1.99353 11.7905 1.875 12.0766 1.875 12.375C1.875 12.6734 1.99353 12.9595 2.2045 13.1705C2.41548 13.3815 2.70163 13.5 3 13.5H7.5C7.79837 13.5 8.08452 13.3815 8.2955 13.1705C8.50647 12.9595 8.625 12.6734 8.625 12.375C8.625 12.0766 8.50647 11.7905 8.2955 11.5795C8.08452 11.3685 7.79837 11.25 7.5 11.25ZM14.25 6.75H13.125V3.75C13.125 3.45163 13.0065 3.16548 12.7955 2.9545C12.5845 2.74353 12.2984 2.625 12 2.625C11.7016 2.625 11.4155 2.74353 11.2045 2.9545C10.9935 3.16548 10.875 3.45163 10.875 3.75V6.75H9.75C9.45163 6.75 9.16548 6.86853 8.9545 7.0795C8.74353 7.29048 8.625 7.57663 8.625 7.875C8.625 8.17337 8.74353 8.45952 8.9545 8.6705C9.16548 8.88147 9.45163 9 9.75 9H14.25C14.5484 9 14.8345 8.88147 15.0455 8.6705C15.2565 8.45952 15.375 8.17337 15.375 7.875C15.375 7.57663 15.2565 7.29048 15.0455 7.0795C14.8345 6.86853 14.5484 6.75 14.25 6.75Z"/>
    </symbol>
    <symbol id="map_pin_icon" viewBox="0 0 24 24">
      <path d="M12 5.625C11.1842 5.625 10.3866 5.86693 9.70827 6.32019C9.02992 6.77345 8.50121 7.41769 8.189 8.17143C7.87679 8.92518 7.7951 9.75458 7.95426 10.5547C8.11343 11.3549 8.50629 12.0899 9.08318 12.6668C9.66008 13.2437 10.3951 13.6366 11.1953 13.7957C11.9954 13.9549 12.8248 13.8732 13.5786 13.561C14.3323 13.2488 14.9766 12.7201 15.4298 12.0417C15.8831 11.3634 16.125 10.5658 16.125 9.75C16.1238 8.65636 15.6888 7.60787 14.9154 6.83455C14.1421 6.06124 13.0936 5.62624 12 5.625ZM12 11.625C11.6292 11.625 11.2666 11.515 10.9583 11.309C10.65 11.103 10.4096 10.8101 10.2677 10.4675C10.1258 10.1249 10.0887 9.74792 10.161 9.3842C10.2334 9.02049 10.412 8.6864 10.6742 8.42417C10.9364 8.16195 11.2705 7.98337 11.6342 7.91103C11.9979 7.83868 12.3749 7.87581 12.7175 8.01772C13.0601 8.15964 13.353 8.39996 13.559 8.70831C13.765 9.01665 13.875 9.37916 13.875 9.75C13.875 10.2473 13.6775 10.7242 13.3258 11.0758C12.9742 11.4275 12.4973 11.625 12 11.625ZM12 1.125C9.71327 1.12748 7.52091 2.03698 5.90394 3.65394C4.28698 5.27091 3.37748 7.46327 3.375 9.75C3.375 17.0025 11.0288 22.4437 11.355 22.6716C11.5441 22.8039 11.7692 22.8748 12 22.8748C12.2308 22.8748 12.4559 22.8039 12.645 22.6716C14.0946 21.6032 15.4209 20.3769 16.5994 19.0153C19.2328 15.9909 20.625 12.7847 20.625 9.75C20.6225 7.46327 19.713 5.27091 18.0961 3.65394C16.4791 2.03698 14.2867 1.12748 12 1.125ZM14.9344 17.5041C14.0405 18.5308 13.0586 19.4776 12 20.3334C10.9414 19.4776 9.9595 18.5308 9.06562 17.5041C7.5 15.6909 5.625 12.8728 5.625 9.75C5.625 8.05924 6.29665 6.43774 7.49219 5.24219C8.68774 4.04665 10.3092 3.375 12 3.375C13.6908 3.375 15.3123 4.04665 16.5078 5.24219C17.7034 6.43774 18.375 8.05924 18.375 9.75C18.375 12.8728 16.5 15.6909 14.9344 17.5041Z"/>
    </symbol>
    <symbol id="chevron_down" viewBox="0 0 24 24">
      <path d="M20.2959 9.79586L12.7959 17.2959C12.6914 17.4007 12.5672 17.484 12.4304 17.5407C12.2937 17.5975 12.1471 17.6267 11.999 17.6267C11.851 17.6267 11.7043 17.5975 11.5676 17.5407C11.4309 17.484 11.3067 17.4007 11.2021 17.2959L3.70215 9.79586C3.4908 9.58451 3.37207 9.29787 3.37207 8.99898C3.37207 8.7001 3.4908 8.41345 3.70215 8.20211C3.91349 7.99076 4.20014 7.87203 4.49902 7.87203C4.79791 7.87203 5.08455 7.99076 5.2959 8.20211L12 14.9062L18.704 8.20117C18.9154 7.98983 19.202 7.87109 19.5009 7.87109C19.7998 7.87109 20.0864 7.98983 20.2978 8.20117C20.5091 8.41252 20.6278 8.69916 20.6278 8.99805C20.6278 9.29693 20.5091 9.58358 20.2978 9.79492L20.2959 9.79586Z"/>
    </symbol>
    <symbol id="heart_filled_icon" viewBox="0 0 24 24">
      <path d="M12 20C1.2 14.4 1.83334 7.99999 3.5 5.49999C7.50001 1.49999 10.8333 4.49999 12 6.5L13.5 4.49999C17.9 1.29999 21 5.16666 22 7.49999C22.4 12.7 15.5 18 12 20Z"/>
      <path d="M16.6875 2.625C14.8041 2.625 13.1325 3.36844 12 4.64625C10.8675 3.36844 9.19594 2.625 7.3125 2.625C5.67208 2.62698 4.09942 3.27952 2.93947 4.43947C1.77952 5.59942 1.12698 7.17208 1.125 8.8125C1.125 15.5944 11.0447 21.0131 11.4666 21.2409C11.6305 21.3292 11.8138 21.3754 12 21.3754C12.1862 21.3754 12.3695 21.3292 12.5334 21.2409C12.9553 21.0131 22.875 15.5944 22.875 8.8125C22.873 7.17208 22.2205 5.59942 21.0605 4.43947C19.9006 3.27952 18.3279 2.62698 16.6875 2.625ZM16.1728 15.9713C14.8671 17.0792 13.4714 18.0764 12 18.9525C10.5286 18.0764 9.13287 17.0792 7.82719 15.9713C5.79562 14.2284 3.375 11.5706 3.375 8.8125C3.375 7.76821 3.78984 6.76669 4.52827 6.02827C5.26669 5.28984 6.26821 4.875 7.3125 4.875C8.98125 4.875 10.3781 5.75625 10.9584 7.17562C11.0429 7.38254 11.1871 7.55961 11.3726 7.68425C11.5581 7.80889 11.7765 7.87545 12 7.87545C12.2235 7.87545 12.4419 7.80889 12.6274 7.68425C12.8129 7.55961 12.9571 7.38254 13.0416 7.17562C13.6219 5.75625 15.0188 4.875 16.6875 4.875C17.7318 4.875 18.7333 5.28984 19.4717 6.02827C20.2102 6.76669 20.625 7.76821 20.625 8.8125C20.625 11.5706 18.2044 14.2284 16.1728 15.9713Z"/>
    </symbol>
    <symbol id="return_icon" viewBox="0 0 24 24">
      <path d="M22.1249 13.5C22.1232 15.1902 21.451 16.8107 20.2558 18.0059C19.0606 19.2011 17.4401 19.8733 15.7499 19.875H7.49991C7.20154 19.875 6.91539 19.7565 6.70442 19.5455C6.49344 19.3345 6.37491 19.0484 6.37491 18.75C6.37491 18.4516 6.49344 18.1655 6.70442 17.9545C6.91539 17.7435 7.20154 17.625 7.49991 17.625H15.7499C16.8439 17.625 17.8931 17.1904 18.6667 16.4168C19.4403 15.6432 19.8749 14.594 19.8749 13.5C19.8749 12.406 19.4403 11.3568 18.6667 10.5832C17.8931 9.8096 16.8439 9.37501 15.7499 9.37501H5.71866L8.29866 11.9541C8.51 12.1654 8.62874 12.4521 8.62874 12.7509C8.62874 13.0498 8.51 13.3365 8.29866 13.5478C8.08732 13.7592 7.80067 13.8779 7.50179 13.8779C7.2029 13.8779 6.91625 13.7592 6.70491 13.5478L2.20491 9.04782C2.10003 8.9433 2.01681 8.81911 1.96003 8.68236C1.90325 8.54562 1.87402 8.39901 1.87402 8.25094C1.87402 8.10288 1.90325 7.95627 1.96003 7.81952C2.01681 7.68278 2.10003 7.55859 2.20491 7.45407L6.70491 2.95407C6.91625 2.74272 7.2029 2.62399 7.50179 2.62399C7.80067 2.62399 8.08732 2.74272 8.29866 2.95407C8.51 3.16541 8.62874 3.45206 8.62874 3.75094C8.62874 4.04983 8.51 4.33647 8.29866 4.54782L5.71866 7.12501H15.7499C17.4401 7.12699 19.0604 7.79928 20.2555 8.99439C21.4506 10.1895 22.1229 11.8099 22.1249 13.5Z"/>
    </symbol>
    <symbol id="box_icon" viewBox="0 0 24 24">
      <path d="M21.15 5.87273L12.9 1.3568C12.6243 1.20506 12.3147 1.12549 12 1.12549C11.6853 1.12549 11.3757 1.20506 11.1 1.3568L2.85 5.87273C2.5548 6.03426 2.3085 6.27224 2.13695 6.56173C1.9654 6.85122 1.87492 7.18154 1.875 7.51805V16.4824C1.87492 16.8189 1.9654 17.1492 2.13695 17.4387C2.3085 17.7282 2.5548 17.9662 2.85 18.1277L11.1 22.6437C11.3756 22.7956 11.6853 22.8752 12 22.8752C12.3147 22.8752 12.6244 22.7956 12.9 22.6437L21.15 18.1277C21.4452 17.9662 21.6915 17.7282 21.863 17.4387C22.0346 17.1492 22.1251 16.8189 22.125 16.4824V7.51805C22.1251 7.18154 22.0346 6.85122 21.863 6.56173C21.6915 6.27224 21.4452 6.03426 21.15 5.87273ZM12 3.42867L18.75 7.12523L16.7409 8.22492L9.99094 4.5293L12 3.42867ZM12 10.819L5.25 7.12523L7.64625 5.81273L14.3962 9.50742L12 10.819ZM4.125 9.0743L10.875 12.768V19.9559L4.125 16.2602V9.0743ZM13.125 19.9559V12.768L15.375 11.5371V14.2502C15.375 14.5486 15.4935 14.8347 15.7045 15.0457C15.9155 15.2567 16.2016 15.3752 16.5 15.3752C16.7984 15.3752 17.0845 15.2567 17.2955 15.0457C17.5065 14.8347 17.625 14.5486 17.625 14.2502V10.3052L19.875 9.0743V16.2602L13.125 19.9559Z"/>
    </symbol>
    <symbol id="faq_icon" viewBox="0 0 24 24">
      <path d="M13.5 16.875C13.5 17.1717 13.412 17.4617 13.2472 17.7084C13.0824 17.955 12.8481 18.1473 12.574 18.2608C12.2999 18.3744 11.9983 18.4041 11.7074 18.3462C11.4164 18.2883 11.1491 18.1454 10.9393 17.9357C10.7296 17.7259 10.5867 17.4586 10.5288 17.1676C10.4709 16.8767 10.5006 16.5751 10.6142 16.301C10.7277 16.0269 10.92 15.7926 11.1666 15.6278C11.4133 15.463 11.7033 15.375 12 15.375C12.3978 15.375 12.7794 15.533 13.0607 15.8143C13.342 16.0956 13.5 16.4772 13.5 16.875ZM22.125 12C22.125 14.0025 21.5312 15.9601 20.4186 17.6251C19.3061 19.2902 17.7248 20.5879 15.8747 21.3543C14.0246 22.1206 11.9888 22.3211 10.0247 21.9305C8.06065 21.5398 6.25655 20.5755 4.84054 19.1595C3.42454 17.7435 2.46023 15.9393 2.06955 13.9753C1.67887 12.0112 1.87938 9.97543 2.64572 8.12533C3.41206 6.27523 4.7098 4.69392 6.37485 3.58137C8.0399 2.46882 9.99747 1.875 12 1.875C14.6844 1.87798 17.258 2.94567 19.1562 4.84383C21.0543 6.74199 22.122 9.3156 22.125 12ZM19.875 12C19.875 10.4425 19.4131 8.91992 18.5478 7.62488C17.6825 6.32985 16.4526 5.32049 15.0136 4.72445C13.5747 4.12841 11.9913 3.97246 10.4637 4.27632C8.93606 4.58017 7.53287 5.3302 6.43153 6.43153C5.3302 7.53287 4.58018 8.93606 4.27632 10.4637C3.97246 11.9913 4.12841 13.5747 4.72445 15.0136C5.32049 16.4526 6.32985 17.6825 7.62489 18.5478C8.91992 19.4131 10.4425 19.875 12 19.875C14.0879 19.8728 16.0896 19.0424 17.566 17.566C19.0424 16.0896 19.8728 14.0879 19.875 12ZM12 6C9.72563 6 7.875 7.68188 7.875 9.75V10.125C7.875 10.4234 7.99353 10.7095 8.2045 10.9205C8.41548 11.1315 8.70163 11.25 9 11.25C9.29837 11.25 9.58452 11.1315 9.7955 10.9205C10.0065 10.7095 10.125 10.4234 10.125 10.125V9.75C10.125 8.92313 10.9688 8.25 12 8.25C13.0312 8.25 13.875 8.92313 13.875 9.75C13.875 10.5769 13.0312 11.25 12 11.25C11.7016 11.25 11.4155 11.3685 11.2045 11.5795C10.9935 11.7905 10.875 12.0766 10.875 12.375V13.125C10.8743 13.4029 10.9766 13.6713 11.162 13.8783C11.3475 14.0854 11.603 14.2164 11.8793 14.2462C12.1557 14.276 12.4333 14.2025 12.6586 14.0398C12.8839 13.8771 13.0411 13.6367 13.0997 13.365C14.8416 12.9262 16.125 11.4722 16.125 9.75C16.125 7.68188 14.2744 6 12 6Z"/>
    </symbol>
    <symbol id="chevron_right" viewBox="0 0 24 24">
      <path d="M9.79595 3.7041L17.2959 11.2041C17.4008 11.3086 17.484 11.4328 17.5408 11.5696C17.5976 11.7063 17.6268 11.8529 17.6268 12.001C17.6268 12.149 17.5976 12.2957 17.5408 12.4324C17.484 12.5691 17.4008 12.6933 17.2959 12.7979L9.79595 20.2979C9.5846 20.5092 9.29796 20.6279 8.99907 20.6279C8.70019 20.6279 8.41354 20.5092 8.2022 20.2979C7.99085 20.0865 7.87212 19.7999 7.87212 19.501C7.87212 19.2021 7.99085 18.9154 8.2022 18.7041L14.9063 12L8.20126 5.29598C7.98992 5.08463 7.87119 4.79799 7.87119 4.4991C7.87119 4.20022 7.98992 3.91357 8.20126 3.70223C8.41261 3.49088 8.69925 3.37215 8.99814 3.37215C9.29702 3.37215 9.58367 3.49088 9.79501 3.70223L9.79595 3.7041Z"/>
    </symbol>
    <symbol id="wa_icon" viewBox="0 0 24 24">
      <path d="M17.5594 14.912C17.4049 15.6764 16.9912 16.3639 16.3882 16.8583C15.7851 17.3526 15.0298 17.6235 14.25 17.6252C12.1622 17.6229 10.1604 16.7925 8.68405 15.3162C7.20768 13.8398 6.37728 11.8381 6.37505 9.75016C6.37666 8.97038 6.64757 8.21509 7.14196 7.61206C7.63634 7.00903 8.32385 6.59527 9.08817 6.44079C9.3298 6.39297 9.58044 6.42578 9.80162 6.53417C10.0228 6.64255 10.2023 6.82053 10.3125 7.04079L11.3888 9.19704C11.4771 9.37417 11.517 9.57145 11.5047 9.76898C11.4924 9.9665 11.4281 10.1573 11.3185 10.322L10.5197 11.5202C10.931 12.3777 11.6225 13.0692 12.48 13.4805L13.6782 12.6817C13.8429 12.5721 14.0337 12.5079 14.2312 12.4955C14.4288 12.4832 14.626 12.5231 14.8032 12.6114L16.9594 13.6877C17.1797 13.7979 17.3577 13.9774 17.466 14.1986C17.5744 14.4198 17.6072 14.6704 17.5594 14.912ZM22.125 12.0002C22.1254 13.7345 21.6803 15.4399 20.8323 16.9528C19.9843 18.4657 18.7619 19.7354 17.2823 20.6402C15.8027 21.545 14.1155 22.0546 12.3824 22.1201C10.6493 22.1856 8.92841 21.8048 7.38474 21.0142L4.34442 22.0314C4.01345 22.143 3.6579 22.1598 3.31784 22.0802C2.97779 22.0005 2.66675 21.8274 2.41978 21.5804C2.17281 21.3335 1.99973 21.0224 1.92005 20.6824C1.84037 20.3423 1.85725 19.9868 1.9688 19.6558L2.98224 16.6155C2.28632 15.2523 1.9085 13.7491 1.87718 12.2189C1.84585 10.6887 2.16185 9.17134 2.8014 7.78084C3.44095 6.39035 4.38741 5.16294 5.56962 4.1909C6.75184 3.21886 8.13904 2.52749 9.62693 2.16876C11.1148 1.81003 12.6647 1.79328 14.16 2.11978C15.6553 2.44628 17.0571 3.10752 18.26 4.05379C19.4629 5.00006 20.4357 6.20673 21.1052 7.58308C21.7746 8.95943 22.1233 10.4696 22.125 12.0002ZM19.875 12.0002C19.8746 10.7922 19.5963 9.6006 19.0616 8.51745C18.5269 7.43429 17.7503 6.48865 16.7917 5.75368C15.8331 5.01871 14.7182 4.5141 13.5334 4.2789C12.3486 4.0437 11.1256 4.0842 9.95894 4.39728C8.79229 4.71037 7.7133 5.28763 6.80543 6.08442C5.89757 6.88121 5.18517 7.87617 4.72334 8.99233C4.26152 10.1085 4.06264 11.3159 4.14211 12.5212C4.22157 13.7265 4.57725 14.8974 5.18161 15.9433C5.26149 16.0812 5.31116 16.2345 5.32732 16.3931C5.34348 16.5516 5.32577 16.7118 5.27536 16.863L4.34442 19.6558L7.13724 18.7248C7.25212 18.6866 7.3724 18.667 7.49349 18.6667C7.69107 18.6671 7.88508 18.7195 8.05599 18.8186C9.2532 19.5113 10.6117 19.8765 11.9949 19.8774C13.3781 19.8783 14.7371 19.5149 15.9353 18.8237C17.1334 18.1325 18.1283 17.138 18.8199 15.9401C19.5115 14.7422 19.8755 13.3833 19.875 12.0002Z"/>
    </symbol>
    <symbol id="site_icon" viewBox="0 0 24 24">
      <path d="M20.25 3.375H3.75C3.25272 3.375 2.77581 3.57254 2.42417 3.92417C2.07254 4.27581 1.875 4.75272 1.875 5.25V18.75C1.875 19.2473 2.07254 19.7242 2.42417 20.0758C2.77581 20.4275 3.25272 20.625 3.75 20.625H20.25C20.7473 20.625 21.2242 20.4275 21.5758 20.0758C21.9275 19.7242 22.125 19.2473 22.125 18.75V5.25C22.125 4.75272 21.9275 4.27581 21.5758 3.92417C21.2242 3.57254 20.7473 3.375 20.25 3.375ZM19.875 5.625V7.875H4.125V5.625H19.875ZM4.125 18.375V10.125H19.875V18.375H4.125Z"/>
    </symbol>
    <symbol id="inst_icon" viewBox="0 0 24 24">
      <path d="M12 7.5C11.11 7.5 10.24 7.76392 9.49993 8.25839C8.75991 8.75285 8.18314 9.45566 7.84254 10.2779C7.50195 11.1002 7.41283 12.005 7.58647 12.8779C7.7601 13.7508 8.18868 14.5526 8.81802 15.182C9.44736 15.8113 10.2492 16.2399 11.1221 16.4135C11.995 16.5872 12.8998 16.4981 13.7221 16.1575C14.5443 15.8169 15.2471 15.2401 15.7416 14.5001C16.2361 13.76 16.5 12.89 16.5 12C16.4988 10.8069 16.0243 9.66303 15.1806 8.81939C14.337 7.97575 13.1931 7.50124 12 7.5ZM12 14.25C11.555 14.25 11.12 14.118 10.75 13.8708C10.38 13.6236 10.0916 13.2722 9.92127 12.861C9.75097 12.4499 9.70642 11.9975 9.79323 11.561C9.88005 11.1246 10.0943 10.7237 10.409 10.409C10.7237 10.0943 11.1246 9.88005 11.561 9.79323C11.9975 9.70642 12.4499 9.75097 12.861 9.92127C13.2722 10.0916 13.6236 10.38 13.8708 10.75C14.118 11.12 14.25 11.555 14.25 12C14.25 12.5967 14.0129 13.169 13.591 13.591C13.169 14.0129 12.5967 14.25 12 14.25ZM16.5 1.875H7.5C6.00869 1.87674 4.57896 2.46993 3.52444 3.52444C2.46993 4.57896 1.87674 6.00869 1.875 7.5V16.5C1.87674 17.9913 2.46993 19.421 3.52444 20.4756C4.57896 21.5301 6.00869 22.1233 7.5 22.125H16.5C17.9913 22.1233 19.421 21.5301 20.4756 20.4756C21.5301 19.421 22.1233 17.9913 22.125 16.5V7.5C22.1233 6.00869 21.5301 4.57896 20.4756 3.52444C19.421 2.46993 17.9913 1.87674 16.5 1.875ZM19.875 16.5C19.875 17.3951 19.5194 18.2535 18.8865 18.8865C18.2535 19.5194 17.3951 19.875 16.5 19.875H7.5C6.60489 19.875 5.74645 19.5194 5.11351 18.8865C4.48058 18.2535 4.125 17.3951 4.125 16.5V7.5C4.125 6.60489 4.48058 5.74645 5.11351 5.11351C5.74645 4.48058 6.60489 4.125 7.5 4.125H16.5C17.3951 4.125 18.2535 4.48058 18.8865 5.11351C19.5194 5.74645 19.875 6.60489 19.875 7.5V16.5ZM18.375 7.125C18.375 7.42167 18.287 7.71168 18.1222 7.95835C17.9574 8.20503 17.7231 8.39729 17.449 8.51082C17.1749 8.62435 16.8733 8.65406 16.5824 8.59618C16.2914 8.5383 16.0241 8.39544 15.8143 8.18566C15.6046 7.97588 15.4617 7.70861 15.4038 7.41764C15.3459 7.12666 15.3756 6.82506 15.4892 6.55097C15.6027 6.27689 15.795 6.04262 16.0416 5.8778C16.2883 5.71297 16.5783 5.625 16.875 5.625C17.2728 5.625 17.6544 5.78304 17.9357 6.06434C18.217 6.34564 18.375 6.72718 18.375 7.125Z"/>
    </symbol>
</svg>
